%TF.GenerationSoftware,KiCad,Pcbnew,7.0.1*%
%TF.CreationDate,2025-05-23T00:35:03+09:00*%
%TF.ProjectId,independent_steering,696e6465-7065-46e6-9465-6e745f737465,rev?*%
%TF.SameCoordinates,Original*%
%TF.FileFunction,Legend,Top*%
%TF.FilePolarity,Positive*%
%FSLAX46Y46*%
G04 Gerber Fmt 4.6, Leading zero omitted, Abs format (unit mm)*
G04 Created by KiCad (PCBNEW 7.0.1) date 2025-05-23 00:35:03*
%MOMM*%
%LPD*%
G01*
G04 APERTURE LIST*
%ADD10C,0.150000*%
%ADD11C,0.120000*%
G04 APERTURE END LIST*
D10*
%TO.C,J1*%
X127472619Y-89193333D02*
X128186904Y-89193333D01*
X128186904Y-89193333D02*
X128329761Y-89240952D01*
X128329761Y-89240952D02*
X128425000Y-89336190D01*
X128425000Y-89336190D02*
X128472619Y-89479047D01*
X128472619Y-89479047D02*
X128472619Y-89574285D01*
X128472619Y-88193333D02*
X128472619Y-88764761D01*
X128472619Y-88479047D02*
X127472619Y-88479047D01*
X127472619Y-88479047D02*
X127615476Y-88574285D01*
X127615476Y-88574285D02*
X127710714Y-88669523D01*
X127710714Y-88669523D02*
X127758333Y-88764761D01*
%TO.C,R3*%
X137412619Y-96686666D02*
X136936428Y-97019999D01*
X137412619Y-97258094D02*
X136412619Y-97258094D01*
X136412619Y-97258094D02*
X136412619Y-96877142D01*
X136412619Y-96877142D02*
X136460238Y-96781904D01*
X136460238Y-96781904D02*
X136507857Y-96734285D01*
X136507857Y-96734285D02*
X136603095Y-96686666D01*
X136603095Y-96686666D02*
X136745952Y-96686666D01*
X136745952Y-96686666D02*
X136841190Y-96734285D01*
X136841190Y-96734285D02*
X136888809Y-96781904D01*
X136888809Y-96781904D02*
X136936428Y-96877142D01*
X136936428Y-96877142D02*
X136936428Y-97258094D01*
X136412619Y-96353332D02*
X136412619Y-95734285D01*
X136412619Y-95734285D02*
X136793571Y-96067618D01*
X136793571Y-96067618D02*
X136793571Y-95924761D01*
X136793571Y-95924761D02*
X136841190Y-95829523D01*
X136841190Y-95829523D02*
X136888809Y-95781904D01*
X136888809Y-95781904D02*
X136984047Y-95734285D01*
X136984047Y-95734285D02*
X137222142Y-95734285D01*
X137222142Y-95734285D02*
X137317380Y-95781904D01*
X137317380Y-95781904D02*
X137365000Y-95829523D01*
X137365000Y-95829523D02*
X137412619Y-95924761D01*
X137412619Y-95924761D02*
X137412619Y-96210475D01*
X137412619Y-96210475D02*
X137365000Y-96305713D01*
X137365000Y-96305713D02*
X137317380Y-96353332D01*
%TO.C,R2*%
X130212619Y-91606666D02*
X129736428Y-91939999D01*
X130212619Y-92178094D02*
X129212619Y-92178094D01*
X129212619Y-92178094D02*
X129212619Y-91797142D01*
X129212619Y-91797142D02*
X129260238Y-91701904D01*
X129260238Y-91701904D02*
X129307857Y-91654285D01*
X129307857Y-91654285D02*
X129403095Y-91606666D01*
X129403095Y-91606666D02*
X129545952Y-91606666D01*
X129545952Y-91606666D02*
X129641190Y-91654285D01*
X129641190Y-91654285D02*
X129688809Y-91701904D01*
X129688809Y-91701904D02*
X129736428Y-91797142D01*
X129736428Y-91797142D02*
X129736428Y-92178094D01*
X129307857Y-91225713D02*
X129260238Y-91178094D01*
X129260238Y-91178094D02*
X129212619Y-91082856D01*
X129212619Y-91082856D02*
X129212619Y-90844761D01*
X129212619Y-90844761D02*
X129260238Y-90749523D01*
X129260238Y-90749523D02*
X129307857Y-90701904D01*
X129307857Y-90701904D02*
X129403095Y-90654285D01*
X129403095Y-90654285D02*
X129498333Y-90654285D01*
X129498333Y-90654285D02*
X129641190Y-90701904D01*
X129641190Y-90701904D02*
X130212619Y-91273332D01*
X130212619Y-91273332D02*
X130212619Y-90654285D01*
%TO.C,R1*%
X130212619Y-86526666D02*
X129736428Y-86859999D01*
X130212619Y-87098094D02*
X129212619Y-87098094D01*
X129212619Y-87098094D02*
X129212619Y-86717142D01*
X129212619Y-86717142D02*
X129260238Y-86621904D01*
X129260238Y-86621904D02*
X129307857Y-86574285D01*
X129307857Y-86574285D02*
X129403095Y-86526666D01*
X129403095Y-86526666D02*
X129545952Y-86526666D01*
X129545952Y-86526666D02*
X129641190Y-86574285D01*
X129641190Y-86574285D02*
X129688809Y-86621904D01*
X129688809Y-86621904D02*
X129736428Y-86717142D01*
X129736428Y-86717142D02*
X129736428Y-87098094D01*
X130212619Y-85574285D02*
X130212619Y-86145713D01*
X130212619Y-85859999D02*
X129212619Y-85859999D01*
X129212619Y-85859999D02*
X129355476Y-85955237D01*
X129355476Y-85955237D02*
X129450714Y-86050475D01*
X129450714Y-86050475D02*
X129498333Y-86145713D01*
%TO.C,D1*%
X120052619Y-97258094D02*
X119052619Y-97258094D01*
X119052619Y-97258094D02*
X119052619Y-97019999D01*
X119052619Y-97019999D02*
X119100238Y-96877142D01*
X119100238Y-96877142D02*
X119195476Y-96781904D01*
X119195476Y-96781904D02*
X119290714Y-96734285D01*
X119290714Y-96734285D02*
X119481190Y-96686666D01*
X119481190Y-96686666D02*
X119624047Y-96686666D01*
X119624047Y-96686666D02*
X119814523Y-96734285D01*
X119814523Y-96734285D02*
X119909761Y-96781904D01*
X119909761Y-96781904D02*
X120005000Y-96877142D01*
X120005000Y-96877142D02*
X120052619Y-97019999D01*
X120052619Y-97019999D02*
X120052619Y-97258094D01*
X120052619Y-95734285D02*
X120052619Y-96305713D01*
X120052619Y-96019999D02*
X119052619Y-96019999D01*
X119052619Y-96019999D02*
X119195476Y-96115237D01*
X119195476Y-96115237D02*
X119290714Y-96210475D01*
X119290714Y-96210475D02*
X119338333Y-96305713D01*
%TO.C,U1*%
X141473095Y-83497619D02*
X141473095Y-84307142D01*
X141473095Y-84307142D02*
X141520714Y-84402380D01*
X141520714Y-84402380D02*
X141568333Y-84450000D01*
X141568333Y-84450000D02*
X141663571Y-84497619D01*
X141663571Y-84497619D02*
X141854047Y-84497619D01*
X141854047Y-84497619D02*
X141949285Y-84450000D01*
X141949285Y-84450000D02*
X141996904Y-84402380D01*
X141996904Y-84402380D02*
X142044523Y-84307142D01*
X142044523Y-84307142D02*
X142044523Y-83497619D01*
X143044523Y-84497619D02*
X142473095Y-84497619D01*
X142758809Y-84497619D02*
X142758809Y-83497619D01*
X142758809Y-83497619D02*
X142663571Y-83640476D01*
X142663571Y-83640476D02*
X142568333Y-83735714D01*
X142568333Y-83735714D02*
X142473095Y-83783333D01*
D11*
%TO.C,J1*%
X124660000Y-93160000D02*
X121710000Y-93160000D01*
X126920000Y-93920000D02*
X126920000Y-83800000D01*
X126910000Y-83810000D02*
X126160000Y-83810000D01*
X126910000Y-93910000D02*
X126910000Y-92110000D01*
X124660000Y-93910000D02*
X124660000Y-93160000D01*
X121710000Y-93160000D02*
X121710000Y-88860000D01*
X127210000Y-83510000D02*
X125960000Y-83510000D01*
X121710000Y-88860000D02*
X121710000Y-85620000D01*
X124660000Y-84560000D02*
X123320000Y-84560000D01*
X126160000Y-90610000D02*
X126910000Y-90610000D01*
X120950000Y-83800000D02*
X120950000Y-93920000D01*
X120950000Y-93920000D02*
X126920000Y-93920000D01*
X126160000Y-92110000D02*
X126160000Y-93910000D01*
X126920000Y-83800000D02*
X120950000Y-83800000D01*
X126160000Y-83810000D02*
X126160000Y-85610000D01*
X124660000Y-83810000D02*
X124660000Y-84560000D01*
X126160000Y-93910000D02*
X126910000Y-93910000D01*
X127210000Y-84760000D02*
X127210000Y-83510000D01*
X126910000Y-90610000D02*
X126910000Y-87110000D01*
X126160000Y-87110000D02*
X126160000Y-90610000D01*
X126160000Y-85610000D02*
X126910000Y-85610000D01*
X126910000Y-85610000D02*
X126910000Y-83810000D01*
X126910000Y-87110000D02*
X126160000Y-87110000D01*
X126910000Y-92110000D02*
X126160000Y-92110000D01*
%TO.C,R3*%
X134620000Y-95190000D02*
X135950000Y-95190000D01*
X130750000Y-95190000D02*
X130750000Y-97850000D01*
X133350000Y-95190000D02*
X130750000Y-95190000D01*
X133350000Y-95190000D02*
X133350000Y-97850000D01*
X135950000Y-95190000D02*
X135950000Y-96520000D01*
X133350000Y-97850000D02*
X130750000Y-97850000D01*
%TO.C,R2*%
X132080000Y-92770000D02*
X130750000Y-92770000D01*
X135950000Y-92770000D02*
X135950000Y-90110000D01*
X133350000Y-92770000D02*
X135950000Y-92770000D01*
X133350000Y-92770000D02*
X133350000Y-90110000D01*
X130750000Y-92770000D02*
X130750000Y-91440000D01*
X133350000Y-90110000D02*
X135950000Y-90110000D01*
%TO.C,R1*%
X132080000Y-87690000D02*
X130750000Y-87690000D01*
X135950000Y-87690000D02*
X135950000Y-85030000D01*
X133350000Y-87690000D02*
X135950000Y-87690000D01*
X133350000Y-87690000D02*
X133350000Y-85030000D01*
X130750000Y-87690000D02*
X130750000Y-86360000D01*
X133350000Y-85030000D02*
X135950000Y-85030000D01*
%TO.C,D1*%
X121920000Y-97850000D02*
X120590000Y-97850000D01*
X125790000Y-97850000D02*
X125790000Y-95190000D01*
X123190000Y-97850000D02*
X125790000Y-97850000D01*
X123190000Y-97850000D02*
X123190000Y-95190000D01*
X120590000Y-97850000D02*
X120590000Y-96520000D01*
X123190000Y-95190000D02*
X125790000Y-95190000D01*
%TO.C,U1*%
X144835000Y-85035000D02*
X144835000Y-97855000D01*
X139635000Y-97855000D02*
X144835000Y-97855000D01*
X142235000Y-87635000D02*
X142235000Y-85035000D01*
X139635000Y-85035000D02*
X140965000Y-85035000D01*
X139635000Y-87635000D02*
X142235000Y-87635000D01*
X142235000Y-85035000D02*
X144835000Y-85035000D01*
X139635000Y-87635000D02*
X139635000Y-97855000D01*
X139635000Y-86365000D02*
X139635000Y-85035000D01*
%TD*%
M02*
